<mxfile host="app.diagrams.net" modified="2021-07-07T07:41:37.263Z" agent="5.0 (Windows NT 10.0; Win64; x64) AppleWebKit/537.36 (KHTML, like Gecko) Chrome/91.0.4472.124 Safari/537.36" etag="LOe6xUPhZlHoCSmqfSTs" version="14.8.4" type="github">
  <diagram id="I1acQup80pIm7hhBkFKN" name="Page-1">
    <mxGraphModel dx="874" dy="661" grid="1" gridSize="10" guides="1" tooltips="1" connect="1" arrows="1" fold="1" page="1" pageScale="1" pageWidth="827" pageHeight="1169" math="0" shadow="0">
      <root>
        <mxCell id="0" />
        <mxCell id="1" parent="0" />
        <mxCell id="JNjtPGQv4dUMdPtZdE4I-124" value="体检机构" style="swimlane;whiteSpace=wrap;fillColor=#60a917;strokeColor=#2D7600;fontColor=#ffffff;" vertex="1" parent="1">
          <mxGeometry x="1030" y="130" width="420" height="2432" as="geometry" />
        </mxCell>
        <mxCell id="JNjtPGQv4dUMdPtZdE4I-125" value="系统项目" style="shape=cylinder3;whiteSpace=wrap;html=1;boundedLbl=1;backgroundOutline=1;size=15;" vertex="1" parent="JNjtPGQv4dUMdPtZdE4I-124">
          <mxGeometry x="120" y="540" width="60" height="80" as="geometry" />
        </mxCell>
        <mxCell id="JNjtPGQv4dUMdPtZdE4I-127" value="系统项目组合" style="shape=cylinder3;whiteSpace=wrap;html=1;boundedLbl=1;backgroundOutline=1;size=15;" vertex="1" parent="JNjtPGQv4dUMdPtZdE4I-124">
          <mxGeometry x="110" y="390" width="60" height="80" as="geometry" />
        </mxCell>
        <mxCell id="JNjtPGQv4dUMdPtZdE4I-128" value="同步套餐" style="fillColor=#FFFFC0;strokeColor=#FF0000;" vertex="1" parent="JNjtPGQv4dUMdPtZdE4I-124">
          <mxGeometry x="250" y="100" width="110" height="50" as="geometry" />
        </mxCell>
        <mxCell id="JNjtPGQv4dUMdPtZdE4I-154" value="建立映射" style="whiteSpace=wrap;html=1;align=left;strokeColor=#FF0000;fillColor=#FFFFC0;" vertex="1" parent="JNjtPGQv4dUMdPtZdE4I-124">
          <mxGeometry x="170" y="1300" width="120" height="60" as="geometry" />
        </mxCell>
        <mxCell id="JNjtPGQv4dUMdPtZdE4I-157" value="建立映射" style="whiteSpace=wrap;html=1;align=left;strokeColor=#FF0000;fillColor=#FFFFC0;" vertex="1" parent="JNjtPGQv4dUMdPtZdE4I-124">
          <mxGeometry x="151" y="1390" width="120" height="60" as="geometry" />
        </mxCell>
        <mxCell id="JNjtPGQv4dUMdPtZdE4I-3" value="Table" style="shape=table;startSize=30;container=1;collapsible=1;childLayout=tableLayout;fixedRows=1;rowLines=0;fontStyle=1;align=center;resizeLast=1;" vertex="1" parent="1">
          <mxGeometry x="460" y="470" width="180" height="160" as="geometry" />
        </mxCell>
        <mxCell id="JNjtPGQv4dUMdPtZdE4I-4" value="" style="shape=partialRectangle;collapsible=0;dropTarget=0;pointerEvents=0;fillColor=none;top=0;left=0;bottom=0;right=0;points=[[0,0.5],[1,0.5]];portConstraint=eastwest;" vertex="1" parent="JNjtPGQv4dUMdPtZdE4I-3">
          <mxGeometry y="30" width="180" height="30" as="geometry" />
        </mxCell>
        <mxCell id="JNjtPGQv4dUMdPtZdE4I-5" value="PK,FK1" style="shape=partialRectangle;connectable=0;fillColor=none;top=0;left=0;bottom=0;right=0;fontStyle=1;overflow=hidden;" vertex="1" parent="JNjtPGQv4dUMdPtZdE4I-4">
          <mxGeometry width="60" height="30" as="geometry" />
        </mxCell>
        <mxCell id="JNjtPGQv4dUMdPtZdE4I-6" value="" style="shape=partialRectangle;connectable=0;fillColor=none;top=0;left=0;bottom=0;right=0;align=left;spacingLeft=6;fontStyle=5;overflow=hidden;" vertex="1" parent="JNjtPGQv4dUMdPtZdE4I-4">
          <mxGeometry x="60" width="120" height="30" as="geometry" />
        </mxCell>
        <mxCell id="JNjtPGQv4dUMdPtZdE4I-7" value="" style="shape=partialRectangle;collapsible=0;dropTarget=0;pointerEvents=0;fillColor=none;top=0;left=0;bottom=1;right=0;points=[[0,0.5],[1,0.5]];portConstraint=eastwest;" vertex="1" parent="JNjtPGQv4dUMdPtZdE4I-3">
          <mxGeometry y="60" width="180" height="30" as="geometry" />
        </mxCell>
        <mxCell id="JNjtPGQv4dUMdPtZdE4I-8" value="PK,FK2" style="shape=partialRectangle;connectable=0;fillColor=none;top=0;left=0;bottom=0;right=0;fontStyle=1;overflow=hidden;" vertex="1" parent="JNjtPGQv4dUMdPtZdE4I-7">
          <mxGeometry width="60" height="30" as="geometry" />
        </mxCell>
        <mxCell id="JNjtPGQv4dUMdPtZdE4I-9" value="" style="shape=partialRectangle;connectable=0;fillColor=none;top=0;left=0;bottom=0;right=0;align=left;spacingLeft=6;fontStyle=5;overflow=hidden;" vertex="1" parent="JNjtPGQv4dUMdPtZdE4I-7">
          <mxGeometry x="60" width="120" height="30" as="geometry" />
        </mxCell>
        <mxCell id="JNjtPGQv4dUMdPtZdE4I-10" value="" style="shape=partialRectangle;collapsible=0;dropTarget=0;pointerEvents=0;fillColor=none;top=0;left=0;bottom=0;right=0;points=[[0,0.5],[1,0.5]];portConstraint=eastwest;" vertex="1" parent="JNjtPGQv4dUMdPtZdE4I-3">
          <mxGeometry y="90" width="180" height="30" as="geometry" />
        </mxCell>
        <mxCell id="JNjtPGQv4dUMdPtZdE4I-11" value="" style="shape=partialRectangle;connectable=0;fillColor=none;top=0;left=0;bottom=0;right=0;editable=1;overflow=hidden;" vertex="1" parent="JNjtPGQv4dUMdPtZdE4I-10">
          <mxGeometry width="60" height="30" as="geometry" />
        </mxCell>
        <mxCell id="JNjtPGQv4dUMdPtZdE4I-12" value="" style="shape=partialRectangle;connectable=0;fillColor=none;top=0;left=0;bottom=0;right=0;align=left;spacingLeft=6;overflow=hidden;" vertex="1" parent="JNjtPGQv4dUMdPtZdE4I-10">
          <mxGeometry x="60" width="120" height="30" as="geometry" />
        </mxCell>
        <mxCell id="JNjtPGQv4dUMdPtZdE4I-13" value="" style="shape=partialRectangle;collapsible=0;dropTarget=0;pointerEvents=0;fillColor=none;top=0;left=0;bottom=0;right=0;points=[[0,0.5],[1,0.5]];portConstraint=eastwest;" vertex="1" parent="JNjtPGQv4dUMdPtZdE4I-3">
          <mxGeometry y="120" width="180" height="30" as="geometry" />
        </mxCell>
        <mxCell id="JNjtPGQv4dUMdPtZdE4I-14" value="" style="shape=partialRectangle;connectable=0;fillColor=none;top=0;left=0;bottom=0;right=0;editable=1;overflow=hidden;" vertex="1" parent="JNjtPGQv4dUMdPtZdE4I-13">
          <mxGeometry width="60" height="30" as="geometry" />
        </mxCell>
        <mxCell id="JNjtPGQv4dUMdPtZdE4I-15" value="" style="shape=partialRectangle;connectable=0;fillColor=none;top=0;left=0;bottom=0;right=0;align=left;spacingLeft=6;overflow=hidden;" vertex="1" parent="JNjtPGQv4dUMdPtZdE4I-13">
          <mxGeometry x="60" width="120" height="30" as="geometry" />
        </mxCell>
        <mxCell id="JNjtPGQv4dUMdPtZdE4I-110" value="保健中心系统" style="swimlane;whiteSpace=wrap;fillColor=#60a917;strokeColor=#2D7600;fontColor=#ffffff;" vertex="1" parent="1">
          <mxGeometry x="1540" y="130" width="720" height="2442" as="geometry" />
        </mxCell>
        <mxCell id="JNjtPGQv4dUMdPtZdE4I-147" style="edgeStyle=orthogonalEdgeStyle;rounded=0;orthogonalLoop=1;jettySize=auto;html=1;entryX=1;entryY=0.5;entryDx=0;entryDy=0;entryPerimeter=0;" edge="1" parent="JNjtPGQv4dUMdPtZdE4I-110" source="JNjtPGQv4dUMdPtZdE4I-115" target="JNjtPGQv4dUMdPtZdE4I-117">
          <mxGeometry relative="1" as="geometry" />
        </mxCell>
        <mxCell id="JNjtPGQv4dUMdPtZdE4I-115" value="体检机构单项" style="shape=cylinder3;whiteSpace=wrap;html=1;boundedLbl=1;backgroundOutline=1;size=15;" vertex="1" parent="JNjtPGQv4dUMdPtZdE4I-110">
          <mxGeometry x="90" y="920" width="60" height="80" as="geometry" />
        </mxCell>
        <mxCell id="JNjtPGQv4dUMdPtZdE4I-117" value="体检机构组合单项" style="shape=cylinder3;whiteSpace=wrap;html=1;boundedLbl=1;backgroundOutline=1;size=15;" vertex="1" parent="JNjtPGQv4dUMdPtZdE4I-110">
          <mxGeometry x="-6" y="860" width="60" height="80" as="geometry" />
        </mxCell>
        <mxCell id="JNjtPGQv4dUMdPtZdE4I-146" style="edgeStyle=orthogonalEdgeStyle;rounded=0;orthogonalLoop=1;jettySize=auto;html=1;entryX=1;entryY=0.5;entryDx=0;entryDy=0;entryPerimeter=0;" edge="1" parent="JNjtPGQv4dUMdPtZdE4I-110" source="JNjtPGQv4dUMdPtZdE4I-116" target="JNjtPGQv4dUMdPtZdE4I-117">
          <mxGeometry relative="1" as="geometry" />
        </mxCell>
        <mxCell id="JNjtPGQv4dUMdPtZdE4I-116" value="体检机构组合" style="shape=cylinder3;whiteSpace=wrap;html=1;boundedLbl=1;backgroundOutline=1;size=15;" vertex="1" parent="JNjtPGQv4dUMdPtZdE4I-110">
          <mxGeometry x="90" y="800" width="60" height="80" as="geometry" />
        </mxCell>
        <mxCell id="JNjtPGQv4dUMdPtZdE4I-129" value="获取套餐列表信息" style="fillColor=#FFFFC0;strokeColor=#FF0000;" vertex="1" parent="JNjtPGQv4dUMdPtZdE4I-110">
          <mxGeometry x="320" y="90" width="100" height="50" as="geometry" />
        </mxCell>
        <mxCell id="JNjtPGQv4dUMdPtZdE4I-135" value="存储到体检套餐数据库表中" style="edgeStyle=orthogonalEdgeStyle;rounded=0;orthogonalLoop=1;jettySize=auto;html=1;exitX=0;exitY=0.5;exitDx=0;exitDy=0;" edge="1" parent="JNjtPGQv4dUMdPtZdE4I-110" source="JNjtPGQv4dUMdPtZdE4I-164" target="JNjtPGQv4dUMdPtZdE4I-136">
          <mxGeometry relative="1" as="geometry">
            <mxPoint x="350" y="370" as="targetPoint" />
          </mxGeometry>
        </mxCell>
        <mxCell id="JNjtPGQv4dUMdPtZdE4I-166" value="不存在" style="edgeLabel;html=1;align=center;verticalAlign=middle;resizable=0;points=[];" vertex="1" connectable="0" parent="JNjtPGQv4dUMdPtZdE4I-135">
          <mxGeometry x="-0.6952" relative="1" as="geometry">
            <mxPoint as="offset" />
          </mxGeometry>
        </mxCell>
        <mxCell id="JNjtPGQv4dUMdPtZdE4I-138" value="" style="edgeStyle=orthogonalEdgeStyle;rounded=0;orthogonalLoop=1;jettySize=auto;html=1;entryX=0.5;entryY=0;entryDx=0;entryDy=0;" edge="1" parent="JNjtPGQv4dUMdPtZdE4I-110" source="JNjtPGQv4dUMdPtZdE4I-132" target="JNjtPGQv4dUMdPtZdE4I-164">
          <mxGeometry relative="1" as="geometry" />
        </mxCell>
        <mxCell id="JNjtPGQv4dUMdPtZdE4I-132" value="获取到体检套餐" style="fillColor=#FFFFC0;strokeColor=#FF0000;align=left;" vertex="1" parent="JNjtPGQv4dUMdPtZdE4I-110">
          <mxGeometry x="300" y="180" width="100" height="110" as="geometry" />
        </mxCell>
        <mxCell id="JNjtPGQv4dUMdPtZdE4I-136" value="体检套餐" style="shape=cylinder3;whiteSpace=wrap;html=1;boundedLbl=1;backgroundOutline=1;size=15;" vertex="1" parent="JNjtPGQv4dUMdPtZdE4I-110">
          <mxGeometry x="40" y="195" width="60" height="80" as="geometry" />
        </mxCell>
        <mxCell id="JNjtPGQv4dUMdPtZdE4I-137" value="获取套餐明细" style="fillColor=#FFFFC0;strokeColor=#FF0000;align=left;" vertex="1" parent="JNjtPGQv4dUMdPtZdE4I-110">
          <mxGeometry x="300" y="510" width="100" height="70" as="geometry" />
        </mxCell>
        <mxCell id="JNjtPGQv4dUMdPtZdE4I-149" value="" style="edgeStyle=orthogonalEdgeStyle;rounded=0;orthogonalLoop=1;jettySize=auto;html=1;" edge="1" parent="JNjtPGQv4dUMdPtZdE4I-110" source="JNjtPGQv4dUMdPtZdE4I-141" target="JNjtPGQv4dUMdPtZdE4I-148">
          <mxGeometry relative="1" as="geometry" />
        </mxCell>
        <mxCell id="JNjtPGQv4dUMdPtZdE4I-141" value="向体检机构软件&#xa;获取体检套餐明细" style="fillColor=#FFFFC0;strokeColor=#FF0000;align=left;" vertex="1" parent="JNjtPGQv4dUMdPtZdE4I-110">
          <mxGeometry x="300" y="610" width="100" height="110" as="geometry" />
        </mxCell>
        <mxCell id="JNjtPGQv4dUMdPtZdE4I-145" value="存储到数据库表中" style="edgeStyle=orthogonalEdgeStyle;rounded=0;orthogonalLoop=1;jettySize=auto;html=1;exitX=0;exitY=0.5;exitDx=0;exitDy=0;entryX=1;entryY=0;entryDx=0;entryDy=52.5;entryPerimeter=0;" edge="1" parent="JNjtPGQv4dUMdPtZdE4I-110" source="JNjtPGQv4dUMdPtZdE4I-148" target="JNjtPGQv4dUMdPtZdE4I-116">
          <mxGeometry relative="1" as="geometry">
            <mxPoint x="300" y="740" as="sourcePoint" />
            <mxPoint x="100" y="740" as="targetPoint" />
          </mxGeometry>
        </mxCell>
        <mxCell id="JNjtPGQv4dUMdPtZdE4I-153" value="存在/" style="edgeStyle=orthogonalEdgeStyle;rounded=0;orthogonalLoop=1;jettySize=auto;html=1;" edge="1" parent="JNjtPGQv4dUMdPtZdE4I-110" source="JNjtPGQv4dUMdPtZdE4I-148" target="JNjtPGQv4dUMdPtZdE4I-152">
          <mxGeometry relative="1" as="geometry" />
        </mxCell>
        <mxCell id="JNjtPGQv4dUMdPtZdE4I-148" value="判断组合和项目是否已经存在" style="rhombus;whiteSpace=wrap;html=1;align=left;strokeColor=#FF0000;fillColor=#FFFFC0;" vertex="1" parent="JNjtPGQv4dUMdPtZdE4I-110">
          <mxGeometry x="310" y="815" width="80" height="80" as="geometry" />
        </mxCell>
        <mxCell id="JNjtPGQv4dUMdPtZdE4I-151" value="存储到数据库表中" style="edgeStyle=orthogonalEdgeStyle;rounded=0;orthogonalLoop=1;jettySize=auto;html=1;exitX=0;exitY=0.5;exitDx=0;exitDy=0;entryX=1;entryY=0;entryDx=0;entryDy=52.5;entryPerimeter=0;" edge="1" parent="JNjtPGQv4dUMdPtZdE4I-110" source="JNjtPGQv4dUMdPtZdE4I-148" target="JNjtPGQv4dUMdPtZdE4I-115">
          <mxGeometry relative="1" as="geometry">
            <mxPoint x="320" y="864.9999999999998" as="sourcePoint" />
            <mxPoint x="160" y="862.4999999999998" as="targetPoint" />
          </mxGeometry>
        </mxCell>
        <mxCell id="JNjtPGQv4dUMdPtZdE4I-169" value="不存在" style="edgeLabel;html=1;align=center;verticalAlign=middle;resizable=0;points=[];" vertex="1" connectable="0" parent="JNjtPGQv4dUMdPtZdE4I-151">
          <mxGeometry x="-0.8682" relative="1" as="geometry">
            <mxPoint as="offset" />
          </mxGeometry>
        </mxCell>
        <mxCell id="JNjtPGQv4dUMdPtZdE4I-161" style="edgeStyle=orthogonalEdgeStyle;rounded=0;orthogonalLoop=1;jettySize=auto;html=1;startArrow=classic;startFill=1;" edge="1" parent="JNjtPGQv4dUMdPtZdE4I-110" source="JNjtPGQv4dUMdPtZdE4I-152" target="JNjtPGQv4dUMdPtZdE4I-160">
          <mxGeometry relative="1" as="geometry" />
        </mxCell>
        <mxCell id="JNjtPGQv4dUMdPtZdE4I-162" style="edgeStyle=orthogonalEdgeStyle;rounded=0;orthogonalLoop=1;jettySize=auto;html=1;entryX=0.5;entryY=0;entryDx=0;entryDy=0;startArrow=classic;startFill=1;" edge="1" parent="JNjtPGQv4dUMdPtZdE4I-110" source="JNjtPGQv4dUMdPtZdE4I-152" target="JNjtPGQv4dUMdPtZdE4I-158">
          <mxGeometry relative="1" as="geometry" />
        </mxCell>
        <mxCell id="JNjtPGQv4dUMdPtZdE4I-152" value="查询映射" style="whiteSpace=wrap;html=1;align=left;strokeColor=#FF0000;fillColor=#FFFFC0;" vertex="1" parent="JNjtPGQv4dUMdPtZdE4I-110">
          <mxGeometry x="290" y="1110" width="120" height="60" as="geometry" />
        </mxCell>
        <mxCell id="JNjtPGQv4dUMdPtZdE4I-158" value="判断映射是否存在" style="rhombus;whiteSpace=wrap;html=1;align=left;strokeColor=#FF0000;fillColor=#FFFFC0;" vertex="1" parent="JNjtPGQv4dUMdPtZdE4I-110">
          <mxGeometry x="300" y="1310" width="80" height="80" as="geometry" />
        </mxCell>
        <mxCell id="JNjtPGQv4dUMdPtZdE4I-160" value="体检机构单项与系统单项的映射" style="shape=cylinder3;whiteSpace=wrap;html=1;boundedLbl=1;backgroundOutline=1;size=15;" vertex="1" parent="JNjtPGQv4dUMdPtZdE4I-110">
          <mxGeometry x="100" y="1090" width="60" height="80" as="geometry" />
        </mxCell>
        <mxCell id="JNjtPGQv4dUMdPtZdE4I-168" style="edgeStyle=orthogonalEdgeStyle;rounded=0;orthogonalLoop=1;jettySize=auto;html=1;entryX=0.5;entryY=0;entryDx=0;entryDy=0;startArrow=none;startFill=0;" edge="1" parent="JNjtPGQv4dUMdPtZdE4I-110" source="JNjtPGQv4dUMdPtZdE4I-164" target="JNjtPGQv4dUMdPtZdE4I-137">
          <mxGeometry relative="1" as="geometry" />
        </mxCell>
        <mxCell id="JNjtPGQv4dUMdPtZdE4I-164" value="判断体检套餐是否存在" style="rhombus;whiteSpace=wrap;html=1;align=left;strokeColor=#FF0000;fillColor=#FFFFC0;" vertex="1" parent="JNjtPGQv4dUMdPtZdE4I-110">
          <mxGeometry x="310" y="340" width="80" height="80" as="geometry" />
        </mxCell>
        <mxCell id="JNjtPGQv4dUMdPtZdE4I-170" value="判断数据是否需要更新" style="rhombus;whiteSpace=wrap;html=1;align=left;strokeColor=#FF0000;fillColor=#FFFFC0;" vertex="1" parent="JNjtPGQv4dUMdPtZdE4I-110">
          <mxGeometry x="370" y="959" width="80" height="80" as="geometry" />
        </mxCell>
        <mxCell id="JNjtPGQv4dUMdPtZdE4I-112" value="REMOTE SERVER" style="swimlane;whiteSpace=wrap;fillColor=#60a917;strokeColor=#2D7600;fontColor=#ffffff;" vertex="1" parent="1">
          <mxGeometry x="2340" y="130" width="590" height="2402" as="geometry" />
        </mxCell>
        <mxCell id="JNjtPGQv4dUMdPtZdE4I-130" value="向体检机构软件&#xa;获取套磁信信息" style="fillColor=#FFFFC0;strokeColor=#FF0000;align=left;" vertex="1" parent="JNjtPGQv4dUMdPtZdE4I-112">
          <mxGeometry x="100" y="90" width="100" height="110" as="geometry" />
        </mxCell>
        <mxCell id="JNjtPGQv4dUMdPtZdE4I-139" value="向体检机构软件&#xa;获取体检套餐明细" style="fillColor=#FFFFC0;strokeColor=#FF0000;align=left;" vertex="1" parent="JNjtPGQv4dUMdPtZdE4I-112">
          <mxGeometry x="130" y="520" width="100" height="110" as="geometry" />
        </mxCell>
        <mxCell id="JNjtPGQv4dUMdPtZdE4I-123" value="同步套餐" style="html=1;verticalAlign=bottom;endArrow=block;labelBackgroundColor=none;fontFamily=Verdana;fontSize=12;edgeStyle=elbowEdgeStyle;elbow=vertical;labelPosition=center;verticalLabelPosition=middle;align=center;" edge="1" parent="1" target="JNjtPGQv4dUMdPtZdE4I-129">
          <mxGeometry relative="1" as="geometry">
            <mxPoint x="1390" y="251" as="sourcePoint" />
            <mxPoint x="1980" y="250" as="targetPoint" />
            <Array as="points">
              <mxPoint x="1675" y="250" />
            </Array>
          </mxGeometry>
        </mxCell>
        <mxCell id="JNjtPGQv4dUMdPtZdE4I-131" value="" style="edgeStyle=orthogonalEdgeStyle;rounded=0;orthogonalLoop=1;jettySize=auto;html=1;" edge="1" parent="1" source="JNjtPGQv4dUMdPtZdE4I-129" target="JNjtPGQv4dUMdPtZdE4I-130">
          <mxGeometry relative="1" as="geometry" />
        </mxCell>
        <mxCell id="JNjtPGQv4dUMdPtZdE4I-133" value="" style="edgeStyle=orthogonalEdgeStyle;rounded=0;orthogonalLoop=1;jettySize=auto;html=1;" edge="1" parent="1" source="JNjtPGQv4dUMdPtZdE4I-130" target="JNjtPGQv4dUMdPtZdE4I-132">
          <mxGeometry relative="1" as="geometry">
            <Array as="points">
              <mxPoint x="2250" y="320" />
              <mxPoint x="2250" y="365" />
            </Array>
          </mxGeometry>
        </mxCell>
        <mxCell id="JNjtPGQv4dUMdPtZdE4I-140" value="" style="edgeStyle=orthogonalEdgeStyle;rounded=0;orthogonalLoop=1;jettySize=auto;html=1;entryX=0;entryY=0.25;entryDx=0;entryDy=0;" edge="1" parent="1" source="JNjtPGQv4dUMdPtZdE4I-137" target="JNjtPGQv4dUMdPtZdE4I-139">
          <mxGeometry relative="1" as="geometry" />
        </mxCell>
        <mxCell id="JNjtPGQv4dUMdPtZdE4I-142" value="" style="rounded=0;orthogonalLoop=1;jettySize=auto;html=1;exitX=0;exitY=0.75;exitDx=0;exitDy=0;edgeStyle=orthogonalEdgeStyle;" edge="1" parent="1" source="JNjtPGQv4dUMdPtZdE4I-139" target="JNjtPGQv4dUMdPtZdE4I-141">
          <mxGeometry relative="1" as="geometry" />
        </mxCell>
        <mxCell id="JNjtPGQv4dUMdPtZdE4I-155" value="" style="edgeStyle=orthogonalEdgeStyle;rounded=0;orthogonalLoop=1;jettySize=auto;html=1;" edge="1" parent="1" source="JNjtPGQv4dUMdPtZdE4I-158" target="JNjtPGQv4dUMdPtZdE4I-154">
          <mxGeometry relative="1" as="geometry" />
        </mxCell>
        <mxCell id="JNjtPGQv4dUMdPtZdE4I-156" value="返回建立映射确认" style="edgeLabel;html=1;align=center;verticalAlign=middle;resizable=0;points=[];" vertex="1" connectable="0" parent="JNjtPGQv4dUMdPtZdE4I-155">
          <mxGeometry x="0.0686" y="-3" relative="1" as="geometry">
            <mxPoint x="-1" as="offset" />
          </mxGeometry>
        </mxCell>
        <mxCell id="JNjtPGQv4dUMdPtZdE4I-163" value="不存在映射" style="edgeLabel;html=1;align=center;verticalAlign=middle;resizable=0;points=[];" vertex="1" connectable="0" parent="JNjtPGQv4dUMdPtZdE4I-155">
          <mxGeometry x="-0.7937" y="-1" relative="1" as="geometry">
            <mxPoint as="offset" />
          </mxGeometry>
        </mxCell>
      </root>
    </mxGraphModel>
  </diagram>
</mxfile>
